<?xml version="1.0" encoding="utf-8"?>
<!-- Generator: Adobe Illustrator 23.0.6, SVG Export Plug-In . SVG Version: 6.00 Build 0)  -->
<svg version="1.1" id="Layer_1" xmlns="http://www.w3.org/2000/svg" xmlns:xlink="http://www.w3.org/1999/xlink" x="0px" y="0px"
	 viewBox="0 0 991 328" style="enable-background:new 0 0 991 328;" xml:space="preserve">
<style type="text/css">
	.st0{fill:#C8D40B;}
	.st1{fill:#1E1E1C;}
</style>
<path class="st0" d="M468.4,194.4c14.3-17.2,21.2-38.4,21.2-63v-26.1c0-4.9-1.5-8.9-4.9-11.8c-3-3.4-6.9-4.9-11.8-4.9
	s-8.9,1.5-12.3,4.9c-3,3-4.9,6.9-4.9,11.8v26.1c0,18.7-5.4,33.5-16.7,44.8c-10.8,11.3-26.1,16.7-44.3,16.7
	c-18.7,0-33.5-5.4-44.8-16.7c-10.8-11.3-16.7-26.1-16.7-44.8l0.5-26.1c0-4.9-1.5-8.9-4.9-11.8c-3-3.4-6.9-4.9-11.8-4.9
	c-4.4,0-8.4,1.5-11.8,4.9c-3.4,3-4.9,6.9-4.9,11.8l-0.5,26.1c0,24.6,6.9,45.3,21.2,63c14.3,17.2,33,27.6,56.6,31.5l-0.5,61
	l-0.5,22.1c0,4.4,1.5,8.9,4.9,12.3c3.4,3,7.4,4.9,12.3,4.9c4.4,0,8.9-1.5,11.8-4.9c3.4-3.4,4.9-7.4,4.9-12.3v-22.1l0.5-61
	C435.5,222,454.2,211.6,468.4,194.4"/>
<path class="st0" d="M113.2,279.1c0,4.4-1.5,7.9-4.4,10.8c-3,3-6.4,4.4-10.8,4.4H12.3v-0.5C5.4,291.4,2,286.4,2,279.1V101.4
	c0-4.4,1.5-7.9,4.4-10.8c3-3,6.4-4.4,10.8-4.4c3.9,0,7.4,1.5,10.3,4.4c3,3,4.4,6.9,4.4,10.8v161.4h65.9c4.4,0,7.9,1.5,10.8,4.9
	S113.2,274.6,113.2,279.1"/>
<path class="st0" d="M251.5,216.6c0-13.3-4.4-24.1-13.8-33.5c-9.3-9.3-20.7-13.8-33.9-13.8c-12.8,0-24.1,4.4-33.5,13.8
	c-9.3,9.3-13.8,20.2-13.8,33.5c0,13.3,4.4,24.1,13.8,33.5c9.3,9.3,20.7,13.8,33.5,13.8c13.3,0,24.6-4.4,33.9-13.8
	C247,240.7,251.5,229.4,251.5,216.6 M284.9,281.5c0,4.9-2,8.9-5.4,11.8c-3.4,3-7.9,4.4-12.3,4.4c-9.3,0-14.8-5.4-15.7-16.7
	c-14.3,10.8-30,16.7-48.2,16.7c-22.1,0-41.3-7.9-57.1-23.6s-23.6-34.9-23.6-57.1c0-22.6,7.9-41.8,23.6-57.6
	c15.7-15.7,34.9-23.6,57.1-23.6c22.6,0,41.8,7.9,57.6,23.6c15.7,15.7,23.6,34.9,23.6,57.6v64.5H284.9z"/>
<path class="st0" d="M631.3,216.1c0-13.3-4.9-24.1-14.3-33.5c-9.3-9.3-20.7-13.8-33.9-13.8c-12.8,0-24.1,4.4-33.5,13.8
	c-9.3,9.3-14.3,20.7-14.3,33.5c0,13.3,4.4,24.1,14.3,33.5c9.3,9.3,20.7,13.8,33.5,13.8c13.3,0,24.6-4.4,33.9-13.8
	C626.4,240.2,631.3,229.4,631.3,216.1 M664.8,216.1c0,22.1-7.9,41.3-24.1,57.6c-15.7,15.7-35.4,24.1-57.6,24.1
	c-22.1,0-41.3-7.9-57.6-24.1c-15.7-15.7-24.1-34.9-24.1-57.6s7.9-41.8,24.1-57.6c15.7-15.7,34.9-24.1,57.6-24.1s41.8,7.9,57.6,24.1
	C656.9,174.3,664.8,193.4,664.8,216.1"/>
<path class="st0" d="M845.3,215.6c0,22.6-7.9,41.8-23.6,57.6c-15.7,15.7-34.9,24.1-57.6,24.1c-22.1,0-41.3-7.9-57.1-24.1
	c-15.7-15.7-24.1-34.9-24.1-57.6c0,0,0-20.2-0.5-61c0-4.4,1.5-8.9,4.9-12.3s7.4-4.9,11.8-4.9c4.4,0,8.4,1.5,11.8,4.4
	c3.4,3,4.9,6.9,4.9,11.8v62c0,13.3,4.4,24.1,13.8,33.5c9.3,9.3,20.7,13.8,33.9,13.8c12.8,0,24.1-4.4,33.5-13.8
	c9.3-9.3,13.8-20.2,13.8-33.5v-61c0-4.4,1.5-8.9,4.9-12.3s7.4-4.9,11.8-4.9c4.4,0,8.4,1.5,11.8,4.4c3.4,3,4.9,6.9,4.9,11.8
	C845.3,195.4,845.3,215.6,845.3,215.6"/>
<path class="st0" d="M989,281c0,4.9-1.5,8.9-4.9,12.3c-3,3.4-6.9,4.9-11.3,4.9c-8.9,0-15.3,0.5-19.2,0.5c-21.6,0-40.3-7.9-55.6-23.6
	c-15.7-15.7-23.1-34.9-23.1-58.1V101.9c0-4.9,1.5-8.9,4.9-11.8c3.4-3,6.9-4.4,11.8-4.4c11.3,0,16.7,9.3,16.7,27.6v21.2h64
	c4.9,0,8.9,2,11.3,5.4c3,3.4,3.9,7.9,3.9,12.3c0,4.9-1.5,8.9-4.9,12.3c-3.4,3.4-7.4,4.9-11.8,4.9h-63v45.3
	c0,13.8,4.4,25.1,13.8,34.4c8.9,9.3,19.7,14.3,32.5,14.3h9.3h8.9c4.4,0,8.4,1.5,11.8,4.9C987.5,272.2,989,276.1,989,281"/>
<path class="st1" d="M408.9,18.3c0-7.9-6.4-14.3-14.3-14.3c-7.9,0-14.3,6.4-14.3,14.3s6.4,14.3,14.3,14.3
	C402.5,32.5,408.9,26.2,408.9,18.3"/>
<path class="st1" d="M408.9,70.9c0-7.9-6.4-14.3-14.3-14.3c-7.9,0-14.3,6.4-14.3,14.3s6.4,14.3,14.3,14.3
	C402.5,85.2,408.9,78.8,408.9,70.9"/>
<path class="st1" d="M408.9,124.1c0-7.9-6.4-14.3-14.3-14.3c-7.9,0-14.3,6.4-14.3,14.3s6.4,14.3,14.3,14.3
	C402.5,137.8,408.9,131.9,408.9,124.1"/>
</svg>
